<svg width="100" height="31" fill="none" xmlns="http://www.w3.org/2000/svg"><path d="M33.983 0h-7.929v4.653h7.929V0zM4.116 20.46a12.212 12.212 0 008.432 3.377c1.495 0 2.906-.504 2.906-1.529s-1.091-1.529-3.695-1.999C7.442 19.52.857 18.512.857 11.944c0-4.435 3.695-8.484 10.868-8.484 4.284 0 8.13 1.21 11.104 3.646l-4.233 5.61c-2.268-1.713-5.208-2.587-7.29-2.587-1.966 0-2.403.706-2.403 1.378 0 1.024 1.058 1.377 3.847 1.848 4.317.739 10.717 1.999 10.717 8.046 0 5.762-4.283 9.105-11.305 9.105-5.577 0-9.373-1.647-12.162-4.166l4.116-5.88zm21.938 9.575V6.685h7.929v23.35h-7.929zm12.179-4.283v4.283h4.283l-4.283-4.283zm21.384 4.283h7.929V17.05l-7.929 7.93v5.055zm31.783 0l-1.025-3.376H80.329l-1.024 3.376H70.72l9.66-26.171h9.961L100 30.035h-8.6zm-6.048-19.2l-2.99 9.222h5.963l-2.973-9.222z" fill="#1D204F"/><path d="M67.546.017V11.07l-7.929 7.929-11.02 11.036-5.543-5.543-4.821-4.838V8.567l10.364 10.381L67.546 0v.017z" fill="#00B04E"/></svg>